<svg id="Layer_1" data-name="Layer 1" xmlns="http://www.w3.org/2000/svg" viewBox="0 0 105.95 66.95"><defs><style>.cls-1{fill:#5a9090;}.cls-2{fill:#f89f1f;}.cls-3{fill:#fcee1f;}.cls-4{fill:#d7572b;}.cls-5{fill:#b2d236;}</style></defs><title>cohort</title><path class="cls-1" d="M242.47,219.64H319.3s1.39,1.1,1.39,1.32-.29,10.32-.29,10.32l-5.56.51L314,264.28l.88,11,3.44.88v10.39l-101-.44L214.74,276l8.56-1.24,17.12-22L223.67,233l-5.93.37-2.49-13.17Zm35.34,43.83,5.93,7.68,2.78,4.54H294l-.22-2.85.66-39.22-9.58.29L268.3,253.15Zm-25.61,4.1-4.31,7.75,14.85-.14-7-11Zm-3.73-35.78,4.39,4.9,5.71-5.71Z" transform="translate(-214.74 -219.64)"/><polygon class="cls-2" points="56.42 39.76 23.5 39.83 18.35 46.28 36.84 46.04 40.72 41.72 44.54 46.05 62.8 46.2 56.42 39.76"/><polygon class="cls-3" points="31.61 53.63 35.81 47.23 17.29 47.45 12.51 53.2 31.61 53.63"/><polygon class="cls-3" points="63.18 47.1 45.69 47.3 49.32 53.27 67.9 53.2 68.17 52.65 63.18 47.1"/><polygon class="cls-2" points="80.71 39.29 80.71 46.02 97.54 45.73 97.97 38.85 80.71 39.29"/><polygon class="cls-3" points="80.85 47.15 80.78 53.43 97.61 53.63 97.24 47.05 80.85 47.15"/><path class="cls-4" d="M319.3,230.25l-.15-6.44-5-1.9-96.3,1,1.61,6.88,4.46.29,19.42,22.5L239,258.5l31.17-.15L265.33,253l18.19-20.2.46-1.57c3.22-.06,7.77-.17,12.46-.29l-1.14,26.53,17.27-.73.93-26.26C315.33,230.43,319.3,230.25,319.3,230.25Zm-75.62-.39,19-1-9.11,11.19Z" transform="translate(-214.74 -219.64)"/><polygon class="cls-5" points="97.28 57.85 97.17 54.66 80.63 54.51 80.8 57.76 70.71 57.7 68.34 54.29 49.39 54.44 51.55 57.58 29.74 57.45 31.24 54.73 12 54.51 10 57.33 3.51 57.29 4.39 64.32 100.83 64.46 101.12 57.88 97.28 57.85"/></svg>