<?xml version="1.0" encoding="utf-8"?>
<!-- Generator: Adobe Illustrator 22.1.0, SVG Export Plug-In . SVG Version: 6.00 Build 0)  -->
<svg version="1.1" id="Layer_1" xmlns="http://www.w3.org/2000/svg" xmlns:xlink="http://www.w3.org/1999/xlink" x="0px" y="0px"
	 viewBox="0 0 1000 1000" style="enable-background:new 0 0 1000 1000;" xml:space="preserve">
<style type="text/css">
	.st0{fill:#5A9190;}
	.st1{fill:#D7572B;}
	.st2{fill:#F89F1F;}
	.st3{fill:#FCEE1F;}
	.st4{fill:#B2D236;}
</style>
<g>
	<polygon class="st0" points="683.6,460.8 914.6,197.1 946.7,96.4 611.4,52.1 470,224.2 315.5,45.1 210.4,38.5 26.3,160.1 
		281,457.5 6.6,794.4 37.8,865.1 239.9,952.1 481.5,674.4 716.5,962 994.2,809.2 967.9,763.2 943.2,761.5 	"/>
	<polygon class="st1" points="470.7,278.2 282.4,83.3 229.2,79.6 71.9,164.9 327,454.5 217.8,586.7 745.8,587.6 636.6,460.1 
		892.1,176.2 909.4,118.3 632.6,79.6 	"/>
	<polygon class="st2" points="759.3,602.4 206.7,600.4 134.3,691.1 428,691.8 482.6,631.1 536.3,692.1 848.9,692.8 	"/>
	<g>
		<polygon class="st3" points="346.2,782.7 413.5,708.5 119.4,707.6 61,781 		"/>
		<polygon class="st3" points="854.3,705.5 552.4,709.5 617.5,784.2 923.1,785.7 926.8,778 		"/>
	</g>
	<g>
		<polygon class="st4" points="334.1,796.1 48.7,796.1 40.2,806.5 52.6,834.9 225.2,910.8 230.8,910.9 		"/>
		<polygon class="st4" points="730.6,912.6 959.9,801 952,786.4 935.6,786.9 926.5,794.9 628,796.1 		"/>
	</g>
</g>
</svg>
